<?xml version="1.0" encoding="utf-8"?>
<!-- Generator: Adobe Illustrator 25.2.1, SVG Export Plug-In . SVG Version: 6.00 Build 0)  -->
<svg version="1.1" id="Layer_1" xmlns="http://www.w3.org/2000/svg" xmlns:xlink="http://www.w3.org/1999/xlink" x="0px" y="0px"
	 viewBox="0 0 1745 860.3" style="enable-background:new 0 0 1745 860.3;" xml:space="preserve">
<style type="text/css">
	.st0{fill:#B8CAD8;}
	.st1{fill:#BACBD9;}
	.st2{font-family:'FuturaPT-Medium';}
	.st3{font-size:744.8475px;}
	.st4{letter-spacing:-44;}
	.st5{letter-spacing:8;}
	.st6{letter-spacing:-29;}
	.st7{letter-spacing:14;}
	.st8{fill:#AFFFDA;}
	.st9{opacity:0.49;fill:#B8CAD8;}
</style>
<g>
	<g>
		<g>
			<path class="st0" d="M270,815.6c-9.9,0-18.9-1.7-27.2-5.2c-8.3-3.4-15.5-8.3-21.7-14.5c-6.1-6.2-10.9-13.4-14.2-21.7
				c-3.4-8.3-5-17.3-5-27c0-9.7,1.7-18.8,5-27c3.4-8.3,8.1-15.5,14.2-21.7c6.1-6.2,13.3-11,21.7-14.5c8.3-3.4,17.4-5.2,27.2-5.2
				c8.4,0,16.1,1.3,23.3,3.8c7.2,2.5,13.7,6,19.4,10.5l-2.7,3.5c-5.3-4.3-11.3-7.6-18.1-9.9c-6.8-2.3-14-3.4-21.6-3.4
				c-9.4,0-17.9,1.6-25.7,4.9c-7.8,3.3-14.4,7.8-20.1,13.6c-5.6,5.8-10,12.6-13.1,20.3c-3.1,7.8-4.6,16.1-4.6,25
				c0,8.9,1.5,17.3,4.6,25c3.1,7.8,7.5,14.5,13.1,20.3c5.6,5.8,12.3,10.3,20.1,13.6c7.8,3.3,16.3,4.9,25.7,4.9
				c7.6,0,14.8-1.1,21.6-3.4c6.8-2.3,12.8-5.6,18.1-9.9l2.7,3.5c-5.8,4.5-12.2,8-19.4,10.5C286.1,814.3,278.4,815.6,270,815.6z"/>
			<path class="st0" d="M403,813V681.2h28.3c8.4,0,15.7,1.5,21.7,4.4c6.1,2.9,10.8,7,14.1,12.3c3.3,5.3,5,11.7,5,19.1
				c0,7.3-1.6,13.7-4.8,19.2c-3.2,5.5-7.7,9.8-13.5,12.9c-5.8,3.1-12.7,4.8-20.5,5.1l44.3,58.8h-5.8l-44.3-58.8h-20V813H403z
				 M407.4,749.9h23.8c7.4,0,13.8-1.4,19.3-4.1c5.5-2.7,9.7-6.5,12.7-11.5c3-4.9,4.5-10.7,4.5-17.4c0-9.9-3.3-17.6-9.8-23.4
				c-6.6-5.7-15.5-8.6-26.8-8.6h-23.8V749.9z"/>
			<path class="st0" d="M567.2,813V681.2h62.6v4h-58.2V745h56.2v4h-56.2V809h58.2v4H567.2z"/>
			<path class="st0" d="M714.1,813l51.3-131.8h4.2L820.9,813h-4.8l-18.9-48.7h-59.4L718.9,813H714.1z M739.3,760.3h56.4l-28.2-73.7
				L739.3,760.3z"/>
			<path class="st0" d="M947.3,813V685.7h-44.1v-4.5h92.7v4.5h-44.1V813H947.3z"/>
			<path class="st0" d="M1088.9,813V681.2h4.5V813H1088.9z"/>
			<path class="st0" d="M1257,815.6c-9.2,0-17.8-1.8-25.9-5.3s-15.1-8.4-21.2-14.7c-6.1-6.3-10.8-13.5-14.3-21.8
				c-3.4-8.3-5.2-17.2-5.2-26.6c0-9.5,1.7-18.4,5.2-26.7c3.4-8.3,8.2-15.5,14.3-21.8c6.1-6.3,13.1-11.1,21.2-14.7s16.7-5.3,25.9-5.3
				s17.8,1.8,25.9,5.3s15.1,8.4,21.2,14.7c6.1,6.3,10.8,13.5,14.3,21.8c3.4,8.3,5.2,17.2,5.2,26.7c0,9.5-1.7,18.4-5.2,26.6
				c-3.4,8.3-8.2,15.6-14.3,21.8c-6.1,6.3-13.1,11.1-21.2,14.7S1266.3,815.6,1257,815.6z M1257,811.3c8.6,0,16.6-1.7,24-5
				c7.5-3.3,14-7.9,19.6-13.8c5.6-5.9,10-12.7,13.2-20.5c3.2-7.8,4.8-16,4.8-24.9c0-8.9-1.6-17.2-4.8-24.9
				c-3.2-7.7-7.6-14.5-13.2-20.4c-5.6-5.9-12.2-10.5-19.6-13.8c-7.5-3.3-15.5-5-24-5c-8.5,0-16.5,1.7-24,5
				c-7.5,3.3-14,7.9-19.7,13.8c-5.6,5.9-10,12.7-13.2,20.4c-3.2,7.7-4.8,16-4.8,24.9c0,8.8,1.6,17.1,4.8,24.9
				c3.2,7.8,7.6,14.6,13.2,20.5c5.6,5.9,12.2,10.5,19.7,13.8C1240.5,809.6,1248.5,811.3,1257,811.3z"/>
			<path class="st0" d="M1420.7,813V681.2h4.5l78.6,123.7V681.2h4.5V813h-4.5l-78.6-123.5V813H1420.7z"/>
			<path class="st0" d="M1644.7,815.6c-7.2,0-13.4-1.2-18.5-3.6c-5.1-2.4-9.4-5.3-12.7-8.7c-3.4-3.4-5.9-6.6-7.6-9.7
				c-1.7-3.1-2.8-5.3-3.2-6.6l3.5-1.9c0.5,1.4,1.5,3.6,3.2,6.4c1.7,2.8,4,5.8,7,8.9c3,3.1,6.9,5.7,11.5,7.8
				c4.7,2.2,10.2,3.2,16.7,3.2c6.2,0,12-1.2,17.3-3.5c5.3-2.3,9.5-5.8,12.7-10.4c3.2-4.6,4.8-10.3,4.8-17.1c0-5.6-1.1-10.3-3.2-14.1
				c-2.2-3.8-5-7-8.7-9.6c-3.6-2.6-7.6-4.8-12-6.6c-4.4-1.8-8.8-3.5-13.3-5c-3-1-6.3-2.3-9.9-3.8c-3.6-1.5-7.1-3.4-10.4-5.9
				c-3.3-2.4-6.1-5.5-8.2-9.2c-2.2-3.7-3.2-8.4-3.2-13.9c0-4.7,0.8-9.1,2.5-13.1c1.7-4,4-7.6,7-10.7c3-3.1,6.6-5.5,10.7-7.2
				c4.2-1.7,8.7-2.6,13.7-2.6c5.5,0,10.4,1,14.7,3s7.8,4.4,10.6,7.4c2.8,3,4.9,6,6.2,8.9l-3.7,1.8c-1.1-2.7-2.9-5.4-5.4-8
				c-2.5-2.6-5.7-4.8-9.5-6.4c-3.8-1.7-8.1-2.5-13-2.5c-6.4,0-11.8,1.5-16.3,4.4c-4.4,2.9-7.8,6.7-10.1,11.2
				c-2.3,4.5-3.4,9.2-3.4,14.1c0,4.6,0.9,8.5,2.8,11.7c1.9,3.2,4.3,5.8,7.4,7.9c3,2.1,6.2,3.9,9.7,5.3c3.5,1.4,6.8,2.7,10,3.7
				c4.6,1.5,9.2,3.3,13.8,5.2c4.6,1.9,8.8,4.3,12.7,7.2c3.9,2.8,7,6.4,9.3,10.7c2.3,4.3,3.5,9.5,3.5,15.8c0,7.6-1.8,14-5.4,19.3
				c-3.6,5.3-8.3,9.3-14.2,12C1658.3,814.2,1651.8,815.6,1644.7,815.6z"/>
		</g>
	</g>
	<text transform="matrix(1 0 0 1 155.634 620.8271)"><tspan x="0" y="0" class="st1 st2 st3 st4">ne</tspan><tspan x="630.9" y="0" class="st1 st2 st3 st5">r</tspan><tspan x="886.3" y="0" class="st1 st2 st3 st6">t</tspan><tspan x="1036.8" y="0" class="st1 st2 st3 st4">i</tspan><tspan x="1157.4" y="0" class="st1 st2 st3 st7">a</tspan></text>
	<g>
		<path class="st8" d="M78.9,251.3c-14.3,0-27.5-3.6-39.5-10.8c-12-7.2-21.5-16.8-28.7-29C3.6,199.4,0,186.1,0,171.8
			c0-14.8,3.6-28,10.8-39.8c7.2-11.7,16.7-21.2,28.7-28.4c12-7.2,25.1-10.8,39.5-10.8c14.8,0,28,3.6,39.8,10.8
			c11.7,7.2,21.2,16.6,28.4,28.4c7.2,11.7,10.8,25,10.8,39.8c0,14.3-3.6,27.6-10.8,39.8c-7.2,12.2-16.6,21.8-28.4,29
			C106.9,247.7,93.7,251.3,78.9,251.3z"/>
	</g>
	<polygon class="st1" points="14.8,307.2 14.8,695.6 31.1,695.6 31.1,512.1 44.1,512.1 44.1,675.2 58.8,675.2 58.8,586.7 
		71.8,586.7 71.8,762.3 86.5,762.3 86.5,542.1 99.5,542.1 99.5,718.5 114.1,718.5 114.1,597.9 127.1,597.9 127.1,814.2 143.1,814.2 
		143.1,307.2 	"/>
	<rect x="14.8" y="710.5" class="st9" width="16.2" height="16.2"/>
	<rect x="99.4" y="730.8" class="st9" width="14.5" height="14.5"/>
	<rect x="71.6" y="774" class="st9" width="14.5" height="14.5"/>
	<rect x="43.9" y="688.3" class="st9" width="14.5" height="14.5"/>
</g>
</svg>
